<?xml version="1.0" encoding="UTF-8"?>
<!-- Grid ecology mark, inscribed circle removed for legibility at small sizes (favicon / footer). -->
<svg id="Layer_1" xmlns="http://www.w3.org/2000/svg" version="1.1" viewBox="0 0 1591.9 1591.9">
  <defs>
    <style>
      .st0 {
        fill: none;
        stroke: #010101;
        stroke-miterlimit: 10;
        stroke-width: 58px;
      }
    </style>
  </defs>
  <rect class="st0" x="13.51" y="13.41" width="1565.85" height="1565.85" rx="55.04" ry="55.04"/>
  <line class="st0" x1="13.51" y1="397.28" x2="1579.37" y2="397.28"/>
  <line class="st0" x1="13.51" y1="1184.53" x2="1579.37" y2="1184.53"/>
  <line class="st0" x1="465.5" y1="13.41" x2="465.5" y2="397.28"/>
  <line class="st0" x1="796.44" y1="13.41" x2="796.44" y2="781.14"/>
  <line class="st0" x1="1173.8" y1="397.28" x2="1173.8" y2="779.16"/>
  <line class="st0" x1="1380.69" y1="13.41" x2="1380.69" y2="397.28"/>
  <line class="st0" x1="1388.09" y1="779.16" x2="1388.09" y2="1184.53"/>
  <line class="st0" x1="698.85" y1="779.16" x2="698.85" y2="1184.53"/>
  <line class="st0" x1="317.91" y1="397.28" x2="317.91" y2="781.14"/>
  <line class="st0" x1="215.46" y1="1184.53" x2="215.46" y2="1579.27"/>
  <line class="st0" x1="497.15" y1="1184.53" x2="497.15" y2="1579.27"/>
  <line class="st0" x1="874.51" y1="1184.53" x2="874.51" y2="1579.27"/>
  <line class="st0" x1="1205.82" y1="1184.53" x2="1205.82" y2="1579.27"/>
  <line class="st0" x1="13.51" y1="779.16" x2="1579.37" y2="779.16"/>
</svg>
