<?xml version="1.0" encoding="UTF-8"?>
<svg id="Layer_1" xmlns="http://www.w3.org/2000/svg" version="1.1" viewBox="0 0 1200 630">
  <!-- Generator: Adobe Illustrator 30.3.0, SVG Export Plug-In . SVG Version: 2.1.3 Build 182)  -->
  <defs>
    <style>
      .st0 {
        fill: #231f20;
      }
    </style>
  </defs>
  <g>
    <path class="st0" d="M404.99,407.28h-7.48l-1.73,6.02h-4.01l7.24-22.24h4.62l7.24,22.24h-4.15l-1.73-6.02ZM404.11,404.19l-.78-2.72c-.36-1.18-.71-2.39-1.04-3.64-.33-1.25-.65-2.48-.97-3.71h-.14c-.32,1.25-.63,2.49-.95,3.72-.32,1.24-.66,2.44-1.02,3.62l-.78,2.72h5.68Z"/>
    <path class="st0" d="M413.63,391.06h3.94v18.9h9.25v3.33h-13.19v-22.24Z"/>
    <path class="st0" d="M430.7,391.06h13.43v3.33h-9.49v6.29h8.09v3.33h-8.09v9.28h-3.94v-22.24Z"/>
    <path class="st0" d="M460.17,413.3l-4.79-8.7h-3.4v8.7h-3.94v-22.24h7.51c1.16,0,2.23.11,3.23.34,1,.23,1.86.6,2.58,1.11.73.51,1.3,1.18,1.72,2.02.42.84.63,1.88.63,3.13,0,1.7-.4,3.07-1.21,4.11-.8,1.04-1.88,1.79-3.21,2.24l5.3,9.28h-4.42ZM451.98,401.47h3.16c1.52,0,2.68-.32,3.48-.95.8-.63,1.21-1.59,1.21-2.86s-.4-2.19-1.21-2.69c-.8-.5-1.97-.75-3.48-.75h-3.16v7.24Z"/>
    <path class="st0" d="M468.4,391.06h13.4v3.33h-9.45v5.68h7.99v3.33h-7.99v6.56h9.79v3.33h-13.74v-22.24Z"/>
    <path class="st0" d="M486.69,391.06h5.95c3.4,0,6.05.92,7.96,2.75s2.86,4.59,2.86,8.26c0,1.84-.24,3.46-.73,4.86-.49,1.41-1.19,2.58-2.11,3.52s-2.03,1.65-3.33,2.12c-1.3.48-2.78.71-4.44.71h-6.15v-22.24ZM492.37,410.1c2.27,0,4.01-.65,5.22-1.96,1.21-1.3,1.82-3.33,1.82-6.07s-.61-4.7-1.84-5.95c-1.22-1.25-2.96-1.87-5.2-1.87h-1.73v15.84h1.73Z"/>
    <path class="st0" d="M515.88,412.11c-.78-2.49-1.17-5.25-1.17-8.26s.39-5.77,1.17-8.26,1.89-4.91,3.31-7.24l2.45,1.09c-1.29,2.2-2.24,4.52-2.84,6.97-.6,2.45-.9,4.93-.9,7.45s.3,5,.9,7.45,1.55,4.77,2.84,6.97l-2.45,1.09c-1.43-2.33-2.53-4.75-3.31-7.24Z"/>
    <path class="st0" d="M525.93,391.06h5.95c3.4,0,6.05.92,7.96,2.75s2.86,4.59,2.86,8.26c0,1.84-.24,3.46-.73,4.86-.49,1.41-1.19,2.58-2.11,3.52s-2.03,1.65-3.33,2.12c-1.3.48-2.78.71-4.44.71h-6.15v-22.24ZM531.61,410.1c2.27,0,4.01-.65,5.22-1.96,1.21-1.3,1.82-3.33,1.82-6.07s-.61-4.7-1.84-5.95c-1.22-1.25-2.96-1.87-5.2-1.87h-1.73v15.84h1.73Z"/>
    <path class="st0" d="M557.18,407.28h-7.48l-1.73,6.02h-4.01l7.24-22.24h4.62l7.24,22.24h-4.15l-1.73-6.02ZM556.29,404.19l-.78-2.72c-.36-1.18-.71-2.39-1.04-3.64-.33-1.25-.65-2.48-.97-3.71h-.14c-.32,1.25-.63,2.49-.95,3.72-.32,1.24-.66,2.44-1.02,3.62l-.78,2.72h5.68Z"/>
    <path class="st0" d="M565.81,391.06h4.05l6.94,12.51,2.28,4.73h.14c-.09-1.16-.2-2.4-.32-3.72-.12-1.33-.19-2.61-.19-3.86v-9.66h3.77v22.24h-4.05l-6.94-12.51-2.28-4.73h-.14c.09,1.18.2,2.41.32,3.71.12,1.29.19,2.56.19,3.81v9.72h-3.77v-22.24Z"/>
    <path class="st0" d="M588.11,391.06h3.94v22.24h-3.94v-22.24Z"/>
    <path class="st0" d="M597.7,391.06h13.4v3.33h-9.45v5.68h7.99v3.33h-7.99v6.56h9.79v3.33h-13.74v-22.24Z"/>
    <path class="st0" d="M616,391.06h3.94v18.9h9.25v3.33h-13.19v-22.24Z"/>
    <path class="st0" d="M634.54,411.29c.6-2.45.9-4.93.9-7.45s-.3-5-.9-7.45c-.6-2.45-1.55-4.77-2.84-6.97l2.45-1.09c1.43,2.33,2.53,4.75,3.31,7.24.78,2.49,1.17,5.25,1.17,8.26s-.39,5.77-1.17,8.26c-.78,2.49-1.89,4.91-3.31,7.24l-2.45-1.09c1.29-2.2,2.24-4.52,2.84-6.97Z"/>
    <path class="st0" d="M651.05,391.06h5.95c3.4,0,6.05.92,7.96,2.75,1.9,1.84,2.86,4.59,2.86,8.26,0,1.84-.24,3.46-.73,4.86-.49,1.41-1.19,2.58-2.11,3.52s-2.03,1.65-3.33,2.12c-1.3.48-2.78.71-4.44.71h-6.15v-22.24ZM656.73,410.1c2.27,0,4.01-.65,5.22-1.96,1.21-1.3,1.82-3.33,1.82-6.07s-.61-4.7-1.84-5.95c-1.22-1.25-2.96-1.87-5.2-1.87h-1.73v15.84h1.73Z"/>
    <path class="st0" d="M672.3,391.06h3.94v22.24h-3.94v-22.24Z"/>
    <path class="st0" d="M680.73,402.25c0-1.81.27-3.44.8-4.88s1.26-2.66,2.19-3.66c.93-1,2.02-1.76,3.26-2.28,1.25-.52,2.58-.78,4.01-.78s2.58.28,3.66.85c1.08.57,1.97,1.22,2.67,1.97l-2.21,2.45c-.57-.57-1.17-1.01-1.82-1.34-.65-.33-1.4-.49-2.26-.49-.93,0-1.77.19-2.53.56-.76.37-1.42.91-1.97,1.6s-.99,1.54-1.29,2.53c-.31,1-.46,2.12-.46,3.37,0,2.54.55,4.53,1.65,5.97,1.1,1.44,2.59,2.16,4.47,2.16,1,0,1.86-.19,2.6-.58.74-.39,1.42-.93,2.06-1.63l2.21,2.41c-.91,1.04-1.94,1.84-3.09,2.4-1.16.55-2.44.83-3.84.83s-2.75-.25-3.98-.75c-1.22-.5-2.29-1.24-3.2-2.21s-1.62-2.18-2.14-3.6c-.52-1.43-.78-3.06-.78-4.9Z"/>
    <path class="st0" d="M701.47,391.06h3.94v10.1h.1l7.92-10.1h4.39l-6.83,8.67,7.99,13.57h-4.35l-6.02-10.47-3.2,3.98v6.49h-3.94v-22.24Z"/>
    <path class="st0" d="M721.94,407.76c.79.75,1.7,1.35,2.72,1.82,1.02.46,2.04.7,3.06.7,1.27,0,2.23-.26,2.89-.78.66-.52.99-1.21.99-2.07,0-.45-.08-.84-.25-1.16s-.41-.59-.71-.83-.67-.46-1.09-.66c-.42-.2-.88-.41-1.38-.61l-3.06-1.33c-.54-.23-1.08-.51-1.61-.85-.53-.34-1.01-.75-1.45-1.22-.43-.48-.78-1.03-1.04-1.67s-.39-1.36-.39-2.18c0-.88.19-1.71.56-2.46.37-.76.89-1.42,1.55-1.99s1.45-1.01,2.36-1.33,1.92-.48,3.01-.48c1.29,0,2.54.25,3.74.76,1.2.51,2.23,1.2,3.09,2.06l-2.01,2.52c-.73-.59-1.47-1.05-2.24-1.39s-1.63-.51-2.58-.51c-1.07,0-1.92.23-2.55.7s-.95,1.1-.95,1.92c0,.43.1.8.29,1.1.19.31.45.58.78.82.33.24.71.45,1.14.65.43.19.87.38,1.33.56l3.03,1.26c.66.27,1.26.59,1.8.95s1.01.78,1.41,1.26c.4.48.71,1.03.93,1.65s.34,1.34.34,2.16c0,.91-.18,1.76-.54,2.55-.36.79-.89,1.49-1.58,2.09s-1.53,1.08-2.52,1.43c-.99.35-2.1.53-3.35.53-1.5,0-2.94-.28-4.33-.85-1.39-.57-2.62-1.37-3.69-2.41l2.31-2.69Z"/>
    <path class="st0" d="M748.32,413.71c-1.45,0-2.78-.27-3.98-.8-1.2-.53-2.23-1.3-3.09-2.31-.86-1.01-1.53-2.23-2.01-3.66-.48-1.43-.71-3.05-.71-4.86s.24-3.39.71-4.81c.48-1.42,1.14-2.61,2.01-3.59s1.89-1.72,3.09-2.24c1.2-.52,2.53-.78,3.98-.78s2.78.26,3.98.78c1.2.52,2.24,1.27,3.11,2.24.87.97,1.55,2.17,2.02,3.59.48,1.42.71,3.02.71,4.81s-.24,3.43-.71,4.86c-.48,1.43-1.15,2.65-2.02,3.66-.87,1.01-1.91,1.78-3.11,2.31s-2.53.8-3.98.8ZM748.32,410.27c.88,0,1.68-.19,2.38-.58.7-.39,1.3-.94,1.8-1.65.5-.71.88-1.58,1.16-2.58.27-1.01.41-2.14.41-3.38,0-2.49-.52-4.45-1.55-5.87-1.03-1.42-2.43-2.12-4.2-2.12s-3.17.71-4.2,2.12c-1.03,1.42-1.55,3.37-1.55,5.87,0,1.25.14,2.37.41,3.38.27,1.01.66,1.87,1.16,2.58.5.71,1.1,1.26,1.8,1.65.7.38,1.5.58,2.38.58Z"/>
    <path class="st0" d="M762.6,391.06h4.05l6.94,12.51,2.28,4.73h.14c-.09-1.16-.2-2.4-.32-3.72-.12-1.33-.19-2.61-.19-3.86v-9.66h3.77v22.24h-4.05l-6.94-12.51-2.28-4.73h-.14c.09,1.18.2,2.41.32,3.71.12,1.29.19,2.56.19,3.81v9.72h-3.77v-22.24Z"/>
    <path class="st0" d="M791.88,391.06h3.94v22.24h-3.94v-22.24Z"/>
    <path class="st0" d="M801.46,391.06h3.94v22.24h-3.94v-22.24Z"/>
  </g>
  <g>
    <path class="st0" d="M302.07,512.9h4.02c2.3,0,4.09.62,5.38,1.86s1.93,3.1,1.93,5.59c0,1.24-.17,2.34-.49,3.29s-.8,1.74-1.43,2.38c-.62.64-1.37,1.12-2.25,1.44-.88.32-1.88.48-3,.48h-4.16v-15.04ZM305.91,525.78c1.53,0,2.71-.44,3.53-1.32s1.23-2.25,1.23-4.11-.41-3.18-1.24-4.03c-.83-.84-2-1.26-3.52-1.26h-1.17v10.72h1.17Z"/>
    <path class="st0" d="M316.45,512.9h9.06v2.25h-6.39v3.84h5.4v2.25h-5.4v4.44h6.62v2.25h-9.29v-15.04Z"/>
    <path class="st0" d="M329.35,524.19c.54.51,1.15.92,1.84,1.23s1.38.47,2.07.47c.86,0,1.51-.18,1.96-.53.44-.35.67-.82.67-1.4,0-.31-.06-.57-.17-.78-.11-.21-.28-.4-.48-.56s-.45-.31-.74-.45c-.28-.14-.59-.28-.93-.41l-2.07-.9c-.37-.15-.73-.34-1.09-.58-.36-.23-.69-.51-.98-.83-.29-.32-.53-.7-.7-1.13-.18-.43-.26-.92-.26-1.47,0-.6.13-1.15.38-1.67.25-.51.6-.96,1.05-1.34.44-.38.98-.68,1.6-.9s1.3-.32,2.04-.32c.87,0,1.72.17,2.53.52.81.35,1.51.81,2.09,1.39l-1.36,1.7c-.49-.4-1-.71-1.52-.94-.52-.23-1.1-.34-1.75-.34-.72,0-1.3.16-1.73.47s-.64.75-.64,1.3c0,.29.06.54.2.75.13.21.31.39.53.55.22.16.48.31.77.44.29.13.59.26.9.38l2.05.85c.44.18.85.4,1.22.64.37.25.69.53.95.85.27.32.48.69.63,1.12.15.42.23.91.23,1.46,0,.61-.12,1.19-.37,1.72-.25.54-.6,1.01-1.07,1.41-.47.41-1.04.73-1.7.97-.67.24-1.42.36-2.27.36-1.01,0-1.99-.19-2.93-.58-.94-.38-1.77-.93-2.5-1.63l1.56-1.82Z"/>
    <path class="st0" d="M341.36,512.9h2.67v15.04h-2.67v-15.04Z"/>
    <path class="st0" d="M347.06,520.46c0-1.23.18-2.33.55-3.3.37-.97.87-1.8,1.52-2.47.64-.67,1.4-1.19,2.28-1.54s1.82-.53,2.83-.53c.52,0,1,.05,1.45.16.44.11.85.25,1.22.43.37.18.71.38,1.01.61.31.23.58.47.81.71l-1.47,1.66c-.38-.37-.8-.67-1.25-.9-.45-.23-1.03-.34-1.74-.34s-1.28.13-1.83.38c-.54.25-1.01.61-1.4,1.08-.39.47-.69,1.04-.91,1.71-.21.67-.32,1.43-.32,2.28,0,1.72.39,3.06,1.16,4.04.77.97,1.92,1.46,3.44,1.46.43,0,.84-.06,1.22-.17.38-.12.7-.28.94-.49v-3.24h-2.85v-2.18h5.24v6.62c-.52.51-1.2.93-2.05,1.28-.84.34-1.79.52-2.83.52s-1.92-.17-2.78-.51c-.86-.34-1.6-.83-2.23-1.49-.63-.66-1.12-1.47-1.47-2.44-.35-.97-.53-2.07-.53-3.31Z"/>
    <path class="st0" d="M362.29,512.9h2.74l4.69,8.46,1.54,3.2h.09c-.06-.78-.13-1.62-.22-2.52-.08-.9-.13-1.77-.13-2.61v-6.53h2.55v15.04h-2.74l-4.69-8.46-1.54-3.2h-.09c.06.8.13,1.63.22,2.51.08.87.13,1.73.13,2.58v6.58h-2.55v-15.04Z"/>
    <path class="st0" d="M382.09,512.9h2.67v15.04h-2.67v-15.04Z"/>
    <path class="st0" d="M388.57,512.9h2.74l4.69,8.46,1.54,3.2h.09c-.06-.78-.13-1.62-.22-2.52-.08-.9-.13-1.77-.13-2.61v-6.53h2.55v15.04h-2.74l-4.69-8.46-1.54-3.2h-.09c.06.8.13,1.63.22,2.51.08.87.13,1.73.13,2.58v6.58h-2.55v-15.04Z"/>
    <path class="st0" d="M403.66,512.9h9.08v2.25h-6.42v4.25h5.47v2.25h-5.47v6.28h-2.67v-15.04Z"/>
    <path class="st0" d="M423.6,527.94l-3.24-5.89h-2.3v5.89h-2.67v-15.04h5.08c.78,0,1.51.08,2.18.23s1.26.4,1.75.75.88.8,1.16,1.37c.28.57.43,1.27.43,2.12,0,1.15-.27,2.08-.82,2.78s-1.27,1.21-2.17,1.52l3.59,6.28h-2.99ZM418.06,519.93h2.14c1.03,0,1.81-.21,2.36-.64.54-.43.82-1.07.82-1.93s-.27-1.48-.82-1.82c-.54-.34-1.33-.51-2.36-.51h-2.14v4.9Z"/>
    <path class="st0" d="M435.93,523.87h-5.06l-1.17,4.07h-2.71l4.9-15.04h3.13l4.9,15.04h-2.81l-1.17-4.07ZM435.33,521.77l-.53-1.84c-.25-.8-.48-1.62-.7-2.46-.22-.84-.44-1.68-.66-2.51h-.09c-.22.84-.43,1.68-.64,2.52-.21.84-.44,1.65-.69,2.45l-.53,1.84h3.84Z"/>
    <path class="st0" d="M442.3,524.19c.54.51,1.15.92,1.84,1.23s1.38.47,2.07.47c.86,0,1.51-.18,1.96-.53.44-.35.67-.82.67-1.4,0-.31-.06-.57-.17-.78-.11-.21-.28-.4-.48-.56s-.45-.31-.74-.45c-.28-.14-.59-.28-.93-.41l-2.07-.9c-.37-.15-.73-.34-1.09-.58-.36-.23-.69-.51-.98-.83-.29-.32-.53-.7-.7-1.13-.18-.43-.26-.92-.26-1.47,0-.6.13-1.15.38-1.67.25-.51.6-.96,1.05-1.34.44-.38.98-.68,1.6-.9s1.3-.32,2.04-.32c.87,0,1.72.17,2.53.52.81.35,1.51.81,2.09,1.39l-1.36,1.7c-.49-.4-1-.71-1.52-.94-.52-.23-1.1-.34-1.75-.34-.72,0-1.3.16-1.73.47s-.64.75-.64,1.3c0,.29.06.54.2.75.13.21.31.39.53.55.22.16.48.31.77.44.29.13.59.26.9.38l2.05.85c.44.18.85.4,1.22.64.37.25.69.53.95.85.27.32.48.69.63,1.12.15.42.23.91.23,1.46,0,.61-.12,1.19-.37,1.72-.25.54-.6,1.01-1.07,1.41-.47.41-1.04.73-1.7.97-.67.24-1.42.36-2.27.36-1.01,0-1.99-.19-2.93-.58-.94-.38-1.77-.93-2.5-1.63l1.56-1.82Z"/>
    <path class="st0" d="M456.88,515.15h-4.35v-2.25h11.36v2.25h-4.35v12.79h-2.67v-12.79Z"/>
    <path class="st0" d="M474.62,527.94l-3.24-5.89h-2.3v5.89h-2.67v-15.04h5.08c.78,0,1.51.08,2.18.23s1.26.4,1.75.75.88.8,1.16,1.37c.28.57.43,1.27.43,2.12,0,1.15-.27,2.08-.82,2.78s-1.27,1.21-2.17,1.52l3.59,6.28h-2.99ZM469.07,519.93h2.14c1.03,0,1.81-.21,2.36-.64.54-.43.82-1.07.82-1.93s-.27-1.48-.82-1.82c-.54-.34-1.33-.51-2.36-.51h-2.14v4.9Z"/>
    <path class="st0" d="M480.11,512.9h2.67v8.65c0,.81.07,1.5.22,2.06.15.56.35,1.01.62,1.35.27.34.59.58.95.72.37.15.78.22,1.24.22s.88-.07,1.27-.22c.38-.15.71-.39.99-.72.28-.34.49-.79.64-1.35.15-.56.23-1.25.23-2.06v-8.65h2.55v8.44c0,1.24-.13,2.3-.39,3.16s-.64,1.58-1.14,2.13c-.5.55-1.1.95-1.79,1.21s-1.48.38-2.36.38-1.66-.13-2.36-.38-1.3-.66-1.79-1.21c-.5-.55-.88-1.26-1.15-2.13-.27-.87-.4-1.92-.4-3.16v-8.44Z"/>
    <path class="st0" d="M494.47,520.46c0-1.23.18-2.33.54-3.3s.85-1.8,1.48-2.47,1.36-1.19,2.21-1.54,1.75-.53,2.71-.53,1.74.19,2.47.58c.73.38,1.33.83,1.81,1.33l-1.5,1.66c-.38-.38-.79-.69-1.23-.91-.44-.22-.95-.33-1.53-.33-.63,0-1.2.13-1.71.38s-.96.61-1.33,1.08c-.38.47-.67,1.04-.87,1.71-.21.67-.31,1.43-.31,2.28,0,1.72.37,3.06,1.12,4.04.74.97,1.75,1.46,3.02,1.46.67,0,1.26-.13,1.76-.39.5-.26.96-.63,1.39-1.1l1.5,1.63c-.61.71-1.31,1.25-2.09,1.62-.78.38-1.65.56-2.6.56s-1.86-.17-2.69-.51c-.83-.34-1.55-.83-2.16-1.49s-1.1-1.47-1.45-2.44c-.35-.97-.53-2.07-.53-3.31Z"/>
    <path class="st0" d="M511.19,515.15h-4.35v-2.25h11.36v2.25h-4.35v12.79h-2.67v-12.79Z"/>
    <path class="st0" d="M520.64,512.9h2.67v8.65c0,.81.07,1.5.22,2.06.15.56.35,1.01.62,1.35.27.34.59.58.95.72.37.15.78.22,1.24.22s.88-.07,1.27-.22c.38-.15.71-.39.99-.72.28-.34.49-.79.64-1.35.15-.56.23-1.25.23-2.06v-8.65h2.55v8.44c0,1.24-.13,2.3-.39,3.16s-.64,1.58-1.14,2.13c-.5.55-1.1.95-1.79,1.21s-1.48.38-2.36.38-1.66-.13-2.36-.38-1.3-.66-1.79-1.21c-.5-.55-.88-1.26-1.15-2.13-.27-.87-.4-1.92-.4-3.16v-8.44Z"/>
    <path class="st0" d="M543.98,527.94l-3.24-5.89h-2.3v5.89h-2.67v-15.04h5.08c.78,0,1.51.08,2.18.23s1.26.4,1.75.75.88.8,1.16,1.37c.28.57.43,1.27.43,2.12,0,1.15-.27,2.08-.82,2.78s-1.27,1.21-2.17,1.52l3.59,6.28h-2.99ZM538.44,519.93h2.14c1.03,0,1.81-.21,2.36-.64.54-.43.82-1.07.82-1.93s-.27-1.48-.82-1.82c-.54-.34-1.33-.51-2.36-.51h-2.14v4.9Z"/>
    <path class="st0" d="M549.55,512.9h9.06v2.25h-6.39v3.84h5.4v2.25h-5.4v4.44h6.62v2.25h-9.29v-15.04Z"/>
    <path class="st0" d="M573.63,523.87h-5.06l-1.17,4.07h-2.71l4.9-15.04h3.13l4.9,15.04h-2.81l-1.17-4.07ZM573.03,521.77l-.53-1.84c-.25-.8-.48-1.62-.7-2.46-.22-.84-.44-1.68-.66-2.51h-.09c-.22.84-.43,1.68-.64,2.52-.21.84-.44,1.65-.69,2.45l-.53,1.84h3.84Z"/>
    <path class="st0" d="M578.46,520.46c0-1.23.18-2.33.54-3.3s.85-1.8,1.48-2.47,1.36-1.19,2.21-1.54,1.75-.53,2.71-.53,1.74.19,2.47.58c.73.38,1.33.83,1.81,1.33l-1.5,1.66c-.38-.38-.79-.69-1.23-.91-.44-.22-.95-.33-1.53-.33-.63,0-1.2.13-1.71.38s-.96.61-1.33,1.08c-.38.47-.67,1.04-.87,1.71-.21.67-.31,1.43-.31,2.28,0,1.72.37,3.06,1.12,4.04.74.97,1.75,1.46,3.02,1.46.67,0,1.26-.13,1.76-.39.5-.26.96-.63,1.39-1.1l1.5,1.63c-.61.71-1.31,1.25-2.09,1.62-.78.38-1.65.56-2.6.56s-1.86-.17-2.69-.51c-.83-.34-1.55-.83-2.16-1.49s-1.1-1.47-1.45-2.44c-.35-.97-.53-2.07-.53-3.31Z"/>
    <path class="st0" d="M600.7,527.94l-3.24-5.89h-2.3v5.89h-2.67v-15.04h5.08c.78,0,1.51.08,2.18.23s1.26.4,1.75.75c.49.34.88.8,1.16,1.37.28.57.43,1.27.43,2.12,0,1.15-.27,2.08-.82,2.78-.54.71-1.27,1.21-2.17,1.52l3.59,6.28h-2.99ZM595.16,519.93h2.14c1.03,0,1.81-.21,2.36-.64.54-.43.82-1.07.82-1.93s-.27-1.48-.82-1.82c-.54-.34-1.33-.51-2.36-.51h-2.14v4.9Z"/>
    <path class="st0" d="M612.11,528.21c-.98,0-1.88-.18-2.69-.54s-1.51-.88-2.09-1.56c-.58-.68-1.04-1.51-1.36-2.47-.32-.97-.48-2.06-.48-3.29s.16-2.3.48-3.25c.32-.96.77-1.77,1.36-2.43.58-.66,1.28-1.17,2.09-1.52s1.71-.53,2.69-.53,1.88.18,2.69.53c.81.35,1.51.86,2.1,1.52.59.66,1.05,1.47,1.37,2.43.32.96.48,2.04.48,3.25s-.16,2.32-.48,3.29-.78,1.79-1.37,2.47c-.59.68-1.29,1.2-2.1,1.56-.81.36-1.71.54-2.69.54ZM612.11,525.89c.6,0,1.13-.13,1.61-.39.47-.26.88-.63,1.22-1.12.34-.48.6-1.07.78-1.75.18-.68.28-1.44.28-2.29,0-1.69-.35-3.01-1.05-3.97-.7-.96-1.64-1.44-2.84-1.44s-2.14.48-2.84,1.44c-.7.96-1.05,2.28-1.05,3.97,0,.84.09,1.61.28,2.29.18.68.45,1.27.78,1.75.34.48.74.86,1.22,1.12.48.26,1.01.39,1.61.39Z"/>
    <path class="st0" d="M622.3,524.19c.54.51,1.15.92,1.84,1.23.69.31,1.38.47,2.07.47.86,0,1.51-.18,1.96-.53.44-.35.67-.82.67-1.4,0-.31-.06-.57-.17-.78-.12-.21-.28-.4-.48-.56s-.45-.31-.74-.45c-.28-.14-.59-.28-.93-.41l-2.07-.9c-.37-.15-.73-.34-1.09-.58-.36-.23-.69-.51-.98-.83-.29-.32-.53-.7-.7-1.13-.18-.43-.26-.92-.26-1.47,0-.6.13-1.15.38-1.67.25-.51.6-.96,1.05-1.34.44-.38.98-.68,1.6-.9s1.3-.32,2.04-.32c.87,0,1.72.17,2.53.52.81.35,1.51.81,2.09,1.39l-1.36,1.7c-.49-.4-1-.71-1.52-.94-.52-.23-1.1-.34-1.75-.34-.72,0-1.3.16-1.72.47-.43.31-.64.75-.64,1.3,0,.29.06.54.2.75.13.21.31.39.53.55.22.16.48.31.77.44.29.13.59.26.9.38l2.05.85c.44.18.85.4,1.22.64.37.25.69.53.96.85.27.32.48.69.63,1.12s.23.91.23,1.46c0,.61-.12,1.19-.37,1.72-.25.54-.6,1.01-1.07,1.41-.47.41-1.04.73-1.7.97-.67.24-1.42.36-2.27.36-1.01,0-1.99-.19-2.93-.58-.94-.38-1.77-.93-2.5-1.63l1.56-1.82Z"/>
    <path class="st0" d="M634.47,524.19c.54.51,1.15.92,1.84,1.23.69.31,1.38.47,2.07.47.86,0,1.51-.18,1.96-.53.44-.35.67-.82.67-1.4,0-.31-.06-.57-.17-.78-.12-.21-.28-.4-.48-.56s-.45-.31-.74-.45c-.28-.14-.59-.28-.93-.41l-2.07-.9c-.37-.15-.73-.34-1.09-.58-.36-.23-.69-.51-.98-.83-.29-.32-.53-.7-.7-1.13-.18-.43-.26-.92-.26-1.47,0-.6.13-1.15.38-1.67.25-.51.6-.96,1.05-1.34.44-.38.98-.68,1.6-.9s1.3-.32,2.04-.32c.87,0,1.72.17,2.53.52.81.35,1.51.81,2.09,1.39l-1.36,1.7c-.49-.4-1-.71-1.52-.94-.52-.23-1.1-.34-1.75-.34-.72,0-1.3.16-1.72.47-.43.31-.64.75-.64,1.3,0,.29.06.54.2.75.13.21.31.39.53.55.22.16.48.31.77.44.29.13.59.26.9.38l2.05.85c.44.18.85.4,1.22.64.37.25.69.53.96.85.27.32.48.69.63,1.12s.23.91.23,1.46c0,.61-.12,1.19-.37,1.72-.25.54-.6,1.01-1.07,1.41-.47.41-1.04.73-1.7.97-.67.24-1.42.36-2.27.36-1.01,0-1.99-.19-2.93-.58-.94-.38-1.77-.93-2.5-1.63l1.56-1.82Z"/>
    <path class="st0" d="M659.4,527.94l-3.24-5.89h-2.3v5.89h-2.67v-15.04h5.08c.78,0,1.51.08,2.18.23s1.26.4,1.75.75c.49.34.88.8,1.16,1.37.28.57.42,1.27.42,2.12,0,1.15-.27,2.08-.82,2.78s-1.27,1.21-2.17,1.52l3.59,6.28h-2.99ZM653.85,519.93h2.14c1.03,0,1.81-.21,2.36-.64.54-.43.82-1.07.82-1.93s-.27-1.48-.82-1.82c-.54-.34-1.33-.51-2.36-.51h-2.14v4.9Z"/>
    <path class="st0" d="M664.96,512.9h9.06v2.25h-6.39v3.84h5.41v2.25h-5.41v4.44h6.62v2.25h-9.29v-15.04Z"/>
    <path class="st0" d="M677.87,524.19c.54.51,1.15.92,1.84,1.23.69.31,1.38.47,2.07.47.86,0,1.51-.18,1.96-.53.44-.35.67-.82.67-1.4,0-.31-.06-.57-.17-.78-.12-.21-.28-.4-.48-.56s-.45-.31-.74-.45c-.28-.14-.59-.28-.93-.41l-2.07-.9c-.37-.15-.73-.34-1.09-.58-.36-.23-.69-.51-.98-.83-.29-.32-.53-.7-.7-1.13-.18-.43-.26-.92-.26-1.47,0-.6.13-1.15.38-1.67.25-.51.6-.96,1.05-1.34.44-.38.98-.68,1.6-.9s1.3-.32,2.04-.32c.87,0,1.72.17,2.53.52.81.35,1.51.81,2.09,1.39l-1.36,1.7c-.49-.4-1-.71-1.52-.94-.52-.23-1.1-.34-1.75-.34-.72,0-1.3.16-1.72.47-.43.31-.64.75-.64,1.3,0,.29.06.54.2.75.13.21.31.39.53.55.22.16.48.31.77.44.29.13.59.26.9.38l2.05.85c.44.18.85.4,1.22.64.37.25.69.53.96.85.27.32.48.69.63,1.12s.23.91.23,1.46c0,.61-.12,1.19-.37,1.72-.25.54-.6,1.01-1.07,1.41-.47.41-1.04.73-1.7.97-.67.24-1.42.36-2.27.36-1.01,0-1.99-.19-2.93-.58-.94-.38-1.77-.93-2.5-1.63l1.56-1.82Z"/>
    <path class="st0" d="M689.87,512.9h9.06v2.25h-6.39v3.84h5.41v2.25h-5.41v4.44h6.62v2.25h-9.29v-15.04Z"/>
    <path class="st0" d="M709.24,523.87h-5.06l-1.17,4.07h-2.71l4.9-15.04h3.13l4.9,15.04h-2.81l-1.17-4.07ZM708.64,521.77l-.53-1.84c-.25-.8-.48-1.62-.7-2.46-.22-.84-.44-1.68-.66-2.51h-.09c-.21.84-.43,1.68-.64,2.52s-.44,1.65-.69,2.45l-.53,1.84h3.84Z"/>
    <path class="st0" d="M723.29,527.94l-3.24-5.89h-2.3v5.89h-2.67v-15.04h5.08c.78,0,1.51.08,2.18.23s1.26.4,1.75.75c.49.34.88.8,1.16,1.37.28.57.42,1.27.42,2.12,0,1.15-.27,2.08-.82,2.78s-1.27,1.21-2.17,1.52l3.59,6.28h-2.99ZM717.75,519.93h2.14c1.03,0,1.81-.21,2.36-.64.54-.43.82-1.07.82-1.93s-.27-1.48-.82-1.82c-.54-.34-1.33-.51-2.36-.51h-2.14v4.9Z"/>
    <path class="st0" d="M728.08,520.46c0-1.23.18-2.33.54-3.3.36-.97.85-1.8,1.48-2.47.63-.67,1.36-1.19,2.21-1.54.84-.35,1.75-.53,2.71-.53s1.74.19,2.47.58c.73.38,1.33.83,1.8,1.33l-1.49,1.66c-.38-.38-.79-.69-1.23-.91-.44-.22-.95-.33-1.53-.33-.63,0-1.2.13-1.71.38-.51.25-.96.61-1.33,1.08-.38.47-.67,1.04-.87,1.71-.21.67-.31,1.43-.31,2.28,0,1.72.37,3.06,1.12,4.04.74.97,1.75,1.46,3.02,1.46.67,0,1.26-.13,1.76-.39.5-.26.96-.63,1.39-1.1l1.5,1.63c-.61.71-1.31,1.25-2.09,1.62-.78.38-1.65.56-2.6.56s-1.86-.17-2.69-.51c-.83-.34-1.55-.83-2.16-1.49-.61-.66-1.1-1.47-1.45-2.44-.35-.97-.53-2.07-.53-3.31Z"/>
    <path class="st0" d="M742.1,512.9h2.67v6.05h6.09v-6.05h2.67v15.04h-2.67v-6.67h-6.09v6.67h-2.67v-15.04Z"/>
    <path class="st0" d="M756.53,530.68c.74-.29,1.31-.68,1.71-1.17.41-.49.61-1.03.61-1.61h-.21c-.45,0-.84-.14-1.18-.43-.34-.28-.52-.69-.52-1.21,0-.49.17-.89.52-1.18s.76-.45,1.25-.45c.63,0,1.12.24,1.46.71.34.47.52,1.14.52,2,0,1.13-.31,2.12-.93,2.94s-1.51,1.44-2.66,1.84l-.58-1.45Z"/>
    <path class="st0" d="M768.39,512.9h4.02c2.3,0,4.09.62,5.38,1.86,1.29,1.24,1.93,3.1,1.93,5.59,0,1.24-.17,2.34-.49,3.29-.33.95-.81,1.74-1.43,2.38-.62.64-1.37,1.12-2.25,1.44-.88.32-1.88.48-3,.48h-4.16v-15.04ZM772.23,525.78c1.53,0,2.71-.44,3.53-1.32s1.23-2.25,1.23-4.11-.41-3.18-1.24-4.03c-.83-.84-2-1.26-3.52-1.26h-1.17v10.72h1.17Z"/>
    <path class="st0" d="M782.77,512.9h9.06v2.25h-6.39v3.84h5.41v2.25h-5.41v4.44h6.62v2.25h-9.29v-15.04Z"/>
    <path class="st0" d="M795.67,524.19c.54.51,1.15.92,1.84,1.23.69.31,1.38.47,2.07.47.86,0,1.51-.18,1.96-.53.44-.35.67-.82.67-1.4,0-.31-.06-.57-.17-.78-.12-.21-.28-.4-.48-.56s-.45-.31-.74-.45c-.28-.14-.59-.28-.93-.41l-2.07-.9c-.37-.15-.73-.34-1.09-.58-.36-.23-.69-.51-.98-.83-.29-.32-.53-.7-.7-1.13-.18-.43-.26-.92-.26-1.47,0-.6.13-1.15.38-1.67.25-.51.6-.96,1.05-1.34.44-.38.98-.68,1.6-.9s1.3-.32,2.04-.32c.87,0,1.72.17,2.53.52.81.35,1.51.81,2.09,1.39l-1.36,1.7c-.49-.4-1-.71-1.52-.94-.52-.23-1.1-.34-1.75-.34-.72,0-1.3.16-1.72.47-.43.31-.64.75-.64,1.3,0,.29.06.54.2.75.13.21.31.39.53.55.22.16.48.31.77.44.29.13.59.26.9.38l2.05.85c.44.18.85.4,1.22.64.37.25.69.53.96.85.27.32.48.69.63,1.12s.23.91.23,1.46c0,.61-.12,1.19-.37,1.72-.25.54-.6,1.01-1.07,1.41-.47.41-1.04.73-1.7.97-.67.24-1.42.36-2.27.36-1.01,0-1.99-.19-2.93-.58-.94-.38-1.77-.93-2.5-1.63l1.56-1.82Z"/>
    <path class="st0" d="M807.68,512.9h2.67v15.04h-2.67v-15.04Z"/>
    <path class="st0" d="M813.38,520.46c0-1.23.18-2.33.55-3.3s.87-1.8,1.52-2.47c.64-.67,1.4-1.19,2.28-1.54s1.82-.53,2.83-.53c.52,0,1,.05,1.45.16.44.11.85.25,1.22.43.37.18.71.38,1.01.61.31.23.57.47.8.71l-1.47,1.66c-.38-.37-.8-.67-1.25-.9-.45-.23-1.03-.34-1.74-.34s-1.28.13-1.83.38c-.54.25-1.01.61-1.4,1.08-.39.47-.69,1.04-.91,1.71-.21.67-.32,1.43-.32,2.28,0,1.72.39,3.06,1.16,4.04.77.97,1.92,1.46,3.44,1.46.43,0,.84-.06,1.22-.17.38-.12.7-.28.94-.49v-3.24h-2.85v-2.18h5.24v6.62c-.52.51-1.2.93-2.05,1.28-.84.34-1.79.52-2.83.52s-1.92-.17-2.78-.51c-.86-.34-1.6-.83-2.23-1.49s-1.12-1.47-1.47-2.44c-.35-.97-.53-2.07-.53-3.31Z"/>
    <path class="st0" d="M828.61,512.9h2.74l4.69,8.46,1.54,3.2h.09c-.06-.78-.13-1.62-.22-2.52-.08-.9-.13-1.77-.13-2.61v-6.53h2.55v15.04h-2.74l-4.69-8.46-1.54-3.2h-.09c.06.8.13,1.63.22,2.51.08.87.13,1.73.13,2.58v6.58h-2.55v-15.04Z"/>
    <path class="st0" d="M842.87,530.68c.74-.29,1.31-.68,1.71-1.17.41-.49.61-1.03.61-1.61h-.21c-.45,0-.84-.14-1.18-.43-.34-.28-.52-.69-.52-1.21,0-.49.17-.89.52-1.18s.76-.45,1.25-.45c.63,0,1.12.24,1.46.71.34.47.52,1.14.52,2,0,1.13-.31,2.12-.93,2.94s-1.51,1.44-2.66,1.84l-.58-1.45Z"/>
    <path class="st0" d="M861.73,523.87h-5.06l-1.17,4.07h-2.71l4.9-15.04h3.13l4.9,15.04h-2.81l-1.17-4.07ZM861.13,521.77l-.53-1.84c-.25-.8-.48-1.62-.7-2.46-.22-.84-.44-1.68-.66-2.51h-.09c-.21.84-.43,1.68-.64,2.52s-.44,1.65-.69,2.45l-.53,1.84h3.84Z"/>
    <path class="st0" d="M867.57,512.9h2.74l4.69,8.46,1.54,3.2h.09c-.06-.78-.13-1.62-.22-2.52-.08-.9-.13-1.77-.13-2.61v-6.53h2.55v15.04h-2.74l-4.69-8.46-1.54-3.2h-.09c.06.8.13,1.63.22,2.51.08.87.13,1.73.13,2.58v6.58h-2.55v-15.04Z"/>
    <path class="st0" d="M882.66,512.9h4.02c2.3,0,4.09.62,5.38,1.86,1.29,1.24,1.93,3.1,1.93,5.59,0,1.24-.17,2.34-.49,3.29-.33.95-.81,1.74-1.43,2.38-.62.64-1.37,1.12-2.25,1.44-.88.32-1.88.48-3,.48h-4.16v-15.04ZM886.5,525.78c1.53,0,2.71-.44,3.53-1.32s1.23-2.25,1.23-4.11-.41-3.18-1.24-4.03c-.83-.84-2-1.26-3.52-1.26h-1.17v10.72h1.17Z"/>
    <path class="st0" d="M324.74,540.5h5.06c.83,0,1.59.08,2.29.23s1.3.41,1.81.78.9.85,1.2,1.44c.29.59.44,1.32.44,2.2,0,.83-.15,1.55-.44,2.16-.29.61-.69,1.12-1.21,1.53s-1.12.71-1.82.9c-.7.19-1.45.29-2.27.29h-2.39v5.52h-2.67v-15.04ZM329.59,547.88c2.21,0,3.31-.91,3.31-2.74,0-.95-.28-1.61-.83-1.97-.55-.36-1.38-.54-2.48-.54h-2.19v5.24h2.19Z"/>
    <path class="st0" d="M346.57,555.54l-3.24-5.89h-2.3v5.89h-2.67v-15.04h5.08c.78,0,1.51.08,2.18.23s1.26.4,1.75.75.88.8,1.16,1.37c.28.57.43,1.27.43,2.12,0,1.15-.27,2.08-.82,2.78s-1.27,1.21-2.17,1.52l3.59,6.28h-2.99ZM341.02,547.53h2.14c1.03,0,1.81-.21,2.36-.64.54-.43.82-1.07.82-1.93s-.27-1.48-.82-1.82c-.54-.34-1.33-.51-2.36-.51h-2.14v4.9Z"/>
    <path class="st0" d="M357.97,555.81c-.98,0-1.88-.18-2.69-.54-.81-.36-1.51-.88-2.09-1.56-.58-.68-1.03-1.51-1.36-2.47-.32-.97-.48-2.06-.48-3.29s.16-2.3.48-3.25c.32-.96.77-1.77,1.36-2.43.58-.66,1.28-1.17,2.09-1.52.81-.35,1.71-.53,2.69-.53s1.88.18,2.69.53c.81.35,1.51.86,2.1,1.52.59.66,1.05,1.47,1.37,2.43.32.96.48,2.04.48,3.25s-.16,2.32-.48,3.29c-.32.97-.78,1.79-1.37,2.47-.59.68-1.29,1.2-2.1,1.56-.81.36-1.71.54-2.69.54ZM357.97,553.49c.6,0,1.13-.13,1.61-.39.48-.26.88-.63,1.22-1.12.34-.48.6-1.07.78-1.75.18-.68.28-1.44.28-2.29,0-1.69-.35-3.01-1.05-3.97-.7-.96-1.64-1.44-2.84-1.44s-2.14.48-2.84,1.44c-.7.96-1.05,2.28-1.05,3.97,0,.84.09,1.61.28,2.29.18.68.44,1.27.78,1.75.34.48.74.86,1.22,1.12.48.26,1.01.39,1.61.39Z"/>
    <path class="st0" d="M367.63,540.5h4.02c2.3,0,4.09.62,5.38,1.86s1.93,3.1,1.93,5.59c0,1.24-.17,2.34-.49,3.29s-.8,1.74-1.43,2.38c-.62.64-1.37,1.12-2.25,1.44-.88.32-1.88.48-3,.48h-4.16v-15.04ZM371.47,553.38c1.53,0,2.71-.44,3.53-1.32s1.23-2.25,1.23-4.11-.41-3.18-1.24-4.03c-.83-.84-2-1.26-3.52-1.26h-1.17v10.72h1.17Z"/>
    <path class="st0" d="M381.94,540.5h2.67v8.65c0,.81.07,1.5.22,2.06.15.56.35,1.01.62,1.35.27.34.59.58.95.72.37.15.78.22,1.24.22s.88-.07,1.27-.22c.38-.15.71-.39.99-.72.28-.34.49-.79.64-1.35.15-.56.23-1.25.23-2.06v-8.65h2.55v8.44c0,1.24-.13,2.3-.39,3.16s-.64,1.58-1.14,2.13c-.5.55-1.1.95-1.79,1.21s-1.48.38-2.36.38-1.66-.13-2.36-.38-1.3-.66-1.79-1.21c-.5-.55-.88-1.26-1.15-2.13-.27-.87-.4-1.92-.4-3.16v-8.44Z"/>
    <path class="st0" d="M396.29,548.06c0-1.23.18-2.33.54-3.3s.85-1.8,1.48-2.47,1.36-1.19,2.21-1.54,1.75-.53,2.71-.53,1.74.19,2.47.58c.73.38,1.33.83,1.81,1.33l-1.5,1.66c-.38-.38-.79-.69-1.23-.91-.44-.22-.95-.33-1.53-.33-.63,0-1.2.13-1.71.38s-.96.61-1.33,1.08c-.38.47-.67,1.04-.87,1.71-.21.67-.31,1.43-.31,2.28,0,1.72.37,3.06,1.12,4.04.74.97,1.75,1.46,3.02,1.46.67,0,1.26-.13,1.76-.39.5-.26.96-.63,1.39-1.1l1.5,1.63c-.61.71-1.31,1.25-2.09,1.62-.78.38-1.65.56-2.6.56s-1.86-.17-2.69-.51c-.83-.34-1.55-.83-2.16-1.49s-1.1-1.47-1.45-2.44c-.35-.97-.53-2.07-.53-3.31Z"/>
    <path class="st0" d="M413.01,542.75h-4.35v-2.25h11.36v2.25h-4.35v12.79h-2.67v-12.79Z"/>
    <path class="st0" d="M422.53,540.5h2.67v15.04h-2.67v-15.04Z"/>
    <path class="st0" d="M434.86,555.81c-.98,0-1.88-.18-2.69-.54-.81-.36-1.51-.88-2.09-1.56-.58-.68-1.03-1.51-1.36-2.47-.32-.97-.48-2.06-.48-3.29s.16-2.3.48-3.25c.32-.96.77-1.77,1.36-2.43.58-.66,1.28-1.17,2.09-1.52.81-.35,1.71-.53,2.69-.53s1.88.18,2.69.53c.81.35,1.51.86,2.1,1.52.59.66,1.05,1.47,1.37,2.43.32.96.48,2.04.48,3.25s-.16,2.32-.48,3.29c-.32.97-.78,1.79-1.37,2.47-.59.68-1.29,1.2-2.1,1.56-.81.36-1.71.54-2.69.54ZM434.86,553.49c.6,0,1.13-.13,1.61-.39.48-.26.88-.63,1.22-1.12.34-.48.6-1.07.78-1.75.18-.68.28-1.44.28-2.29,0-1.69-.35-3.01-1.05-3.97-.7-.96-1.64-1.44-2.84-1.44s-2.14.48-2.84,1.44c-.7.96-1.05,2.28-1.05,3.97,0,.84.09,1.61.28,2.29.18.68.44,1.27.78,1.75.34.48.74.86,1.22,1.12.48.26,1.01.39,1.61.39Z"/>
    <path class="st0" d="M444.52,540.5h2.74l4.69,8.46,1.54,3.2h.09c-.06-.78-.13-1.62-.22-2.52-.08-.9-.13-1.77-.13-2.61v-6.53h2.55v15.04h-2.74l-4.69-8.46-1.54-3.2h-.09c.06.8.13,1.63.22,2.51.08.87.13,1.73.13,2.58v6.58h-2.55v-15.04Z"/>
    <path class="st0" d="M459.15,554.02c0-.52.16-.95.49-1.29.33-.34.74-.51,1.23-.51s.9.17,1.22.51c.32.34.48.77.48,1.29s-.16.95-.48,1.29c-.32.34-.73.51-1.22.51s-.9-.17-1.23-.51c-.33-.34-.49-.77-.49-1.29Z"/>
    <path class="st0" d="M469.87,548.06c0-1.23.18-2.33.54-3.3s.85-1.8,1.48-2.47,1.36-1.19,2.21-1.54,1.75-.53,2.71-.53,1.74.19,2.47.58c.73.38,1.33.83,1.81,1.33l-1.5,1.66c-.38-.38-.79-.69-1.23-.91-.44-.22-.95-.33-1.53-.33-.63,0-1.2.13-1.71.38s-.96.61-1.33,1.08c-.38.47-.67,1.04-.87,1.71-.21.67-.31,1.43-.31,2.28,0,1.72.37,3.06,1.12,4.04.74.97,1.75,1.46,3.02,1.46.67,0,1.26-.13,1.76-.39.5-.26.96-.63,1.39-1.1l1.5,1.63c-.61.71-1.31,1.25-2.09,1.62-.78.38-1.65.56-2.6.56s-1.86-.17-2.69-.51c-.83-.34-1.55-.83-2.16-1.49s-1.1-1.47-1.45-2.44c-.35-.97-.53-2.07-.53-3.31Z"/>
    <path class="st0" d="M488.98,555.81c-.98,0-1.88-.18-2.69-.54-.81-.36-1.51-.88-2.09-1.56-.58-.68-1.03-1.51-1.36-2.47-.32-.97-.48-2.06-.48-3.29s.16-2.3.48-3.25c.32-.96.77-1.77,1.36-2.43.58-.66,1.28-1.17,2.09-1.52.81-.35,1.71-.53,2.69-.53s1.88.18,2.69.53c.81.35,1.51.86,2.1,1.52.59.66,1.05,1.47,1.37,2.43.32.96.48,2.04.48,3.25s-.16,2.32-.48,3.29c-.32.97-.78,1.79-1.37,2.47-.59.68-1.29,1.2-2.1,1.56-.81.36-1.71.54-2.69.54ZM488.98,553.49c.6,0,1.13-.13,1.61-.39.48-.26.88-.63,1.22-1.12.34-.48.6-1.07.78-1.75.18-.68.28-1.44.28-2.29,0-1.69-.35-3.01-1.05-3.97-.7-.96-1.64-1.44-2.84-1.44s-2.14.48-2.84,1.44c-.7.96-1.05,2.28-1.05,3.97,0,.84.09,1.61.28,2.29.18.68.44,1.27.78,1.75.34.48.74.86,1.22,1.12.48.26,1.01.39,1.61.39Z"/>
    <path class="st0" d="M498.64,540.5h2.74l4.69,8.46,1.54,3.2h.09c-.06-.78-.13-1.62-.22-2.52-.08-.9-.13-1.77-.13-2.61v-6.53h2.55v15.04h-2.74l-4.69-8.46-1.54-3.2h-.09c.06.8.13,1.63.22,2.51.08.87.13,1.73.13,2.58v6.58h-2.55v-15.04Z"/>
    <path class="st0" d="M513.73,540.5h4.02c2.3,0,4.09.62,5.38,1.86s1.93,3.1,1.93,5.59c0,1.24-.17,2.34-.49,3.29s-.8,1.74-1.43,2.38c-.62.64-1.37,1.12-2.25,1.44-.88.32-1.88.48-3,.48h-4.16v-15.04ZM517.57,553.38c1.53,0,2.71-.44,3.53-1.32s1.23-2.25,1.23-4.11-.41-3.18-1.24-4.03c-.83-.84-2-1.26-3.52-1.26h-1.17v10.72h1.17Z"/>
    <path class="st0" d="M528.1,540.5h2.67v15.04h-2.67v-15.04Z"/>
    <path class="st0" d="M537.62,542.75h-4.35v-2.25h11.36v2.25h-4.35v12.79h-2.67v-12.79Z"/>
    <path class="st0" d="M547.15,540.5h2.67v15.04h-2.67v-15.04Z"/>
    <path class="st0" d="M559.47,555.81c-.98,0-1.88-.18-2.69-.54-.81-.36-1.51-.88-2.09-1.56-.58-.68-1.03-1.51-1.36-2.47-.32-.97-.48-2.06-.48-3.29s.16-2.3.48-3.25c.32-.96.77-1.77,1.36-2.43.58-.66,1.28-1.17,2.09-1.52.81-.35,1.71-.53,2.69-.53s1.88.18,2.69.53c.81.35,1.51.86,2.1,1.52.59.66,1.05,1.47,1.37,2.43.32.96.48,2.04.48,3.25s-.16,2.32-.48,3.29c-.32.97-.78,1.79-1.37,2.47-.59.68-1.29,1.2-2.1,1.56-.81.36-1.71.54-2.69.54ZM559.47,553.49c.6,0,1.13-.13,1.61-.39.48-.26.88-.63,1.22-1.12.34-.48.6-1.07.78-1.75.18-.68.28-1.44.28-2.29,0-1.69-.35-3.01-1.05-3.97-.7-.96-1.64-1.44-2.84-1.44s-2.14.48-2.84,1.44c-.7.96-1.05,2.28-1.05,3.97,0,.84.09,1.61.28,2.29.18.68.44,1.27.78,1.75.34.48.74.86,1.22,1.12.48.26,1.01.39,1.61.39Z"/>
    <path class="st0" d="M569.13,540.5h2.74l4.69,8.46,1.54,3.2h.09c-.06-.78-.13-1.62-.22-2.52-.08-.9-.13-1.77-.13-2.61v-6.53h2.55v15.04h-2.74l-4.69-8.46-1.54-3.2h-.09c.06.8.13,1.63.22,2.51.08.87.13,1.73.13,2.58v6.58h-2.55v-15.04Z"/>
    <path class="st0" d="M584.75,551.79c.54.51,1.15.92,1.84,1.23s1.38.47,2.07.47c.86,0,1.51-.18,1.96-.53.44-.35.67-.82.67-1.4,0-.31-.06-.57-.17-.78-.11-.21-.28-.4-.48-.56s-.45-.31-.74-.45c-.28-.14-.59-.28-.93-.41l-2.07-.9c-.37-.15-.73-.34-1.09-.58-.36-.23-.69-.51-.98-.83-.29-.32-.53-.7-.7-1.13-.18-.43-.26-.92-.26-1.47,0-.6.13-1.15.38-1.67.25-.51.6-.96,1.05-1.34.44-.38.98-.68,1.6-.9s1.3-.32,2.04-.32c.87,0,1.72.17,2.53.52.81.35,1.51.81,2.09,1.39l-1.36,1.7c-.49-.4-1-.71-1.52-.94-.52-.23-1.1-.34-1.75-.34-.72,0-1.3.16-1.73.47s-.64.75-.64,1.3c0,.29.06.54.2.75.13.21.31.39.53.55.22.16.48.31.77.44.29.13.59.26.9.38l2.05.85c.44.18.85.4,1.22.64.37.25.69.53.95.85.27.32.48.69.63,1.12.15.42.23.91.23,1.46,0,.61-.12,1.19-.37,1.72-.25.54-.6,1.01-1.07,1.41-.47.41-1.04.73-1.7.97-.67.24-1.42.36-2.27.36-1.01,0-1.99-.19-2.93-.58-.94-.38-1.77-.93-2.5-1.63l1.56-1.82Z"/>
    <path class="st0" d="M595.93,558.28c.74-.29,1.31-.68,1.71-1.17.41-.49.61-1.03.61-1.61h-.21c-.44,0-.84-.14-1.18-.43-.35-.28-.52-.69-.52-1.21,0-.49.17-.89.52-1.18.34-.3.76-.45,1.25-.45.63,0,1.12.24,1.46.71.34.47.52,1.14.52,2,0,1.13-.31,2.12-.93,2.94s-1.51,1.44-2.66,1.84l-.57-1.45Z"/>
    <path class="st0" d="M607.8,540.5h2.94l2.71,7.41.99,2.85h.09l.97-2.85,2.67-7.41h2.94v15.04h-2.51v-6.88c0-.35.01-.74.04-1.15.02-.41.05-.83.08-1.25.03-.42.07-.84.12-1.24s.08-.79.12-1.14h-.09l-1.22,3.43-2.6,6.83h-1.24l-2.6-6.83-1.2-3.43h-.09c.03.35.06.73.1,1.14.04.41.08.82.11,1.24s.07.84.09,1.25c.02.41.03.8.03,1.15v6.88h-2.46v-15.04Z"/>
    <path class="st0" d="M630.77,555.81c-.98,0-1.88-.18-2.69-.54s-1.51-.88-2.09-1.56c-.58-.68-1.04-1.51-1.36-2.47-.32-.97-.48-2.06-.48-3.29s.16-2.3.48-3.25c.32-.96.77-1.77,1.36-2.43.58-.66,1.28-1.17,2.09-1.52s1.71-.53,2.69-.53,1.88.18,2.69.53c.81.35,1.51.86,2.1,1.52.59.66,1.05,1.47,1.37,2.43.32.96.48,2.04.48,3.25s-.16,2.32-.48,3.29-.78,1.79-1.37,2.47c-.59.68-1.29,1.2-2.1,1.56-.81.36-1.71.54-2.69.54ZM630.77,553.49c.6,0,1.13-.13,1.61-.39.47-.26.88-.63,1.22-1.12.34-.48.6-1.07.78-1.75.18-.68.28-1.44.28-2.29,0-1.69-.35-3.01-1.05-3.97-.7-.96-1.64-1.44-2.84-1.44s-2.14.48-2.84,1.44c-.7.96-1.05,2.28-1.05,3.97,0,.84.09,1.61.28,2.29.18.68.45,1.27.78,1.75.34.48.74.86,1.22,1.12.48.26,1.01.39,1.61.39Z"/>
    <path class="st0" d="M640.43,540.5h4.02c2.3,0,4.09.62,5.38,1.86,1.29,1.24,1.93,3.1,1.93,5.59,0,1.24-.17,2.34-.49,3.29-.33.95-.81,1.74-1.43,2.38-.62.64-1.37,1.12-2.25,1.44-.88.32-1.88.48-3,.48h-4.16v-15.04ZM644.27,553.38c1.53,0,2.71-.44,3.53-1.32s1.23-2.25,1.23-4.11-.41-3.18-1.24-4.03c-.83-.84-2-1.26-3.52-1.26h-1.17v10.72h1.17Z"/>
    <path class="st0" d="M654.81,540.5h9.06v2.25h-6.39v3.84h5.41v2.25h-5.41v4.44h6.62v2.25h-9.29v-15.04Z"/>
    <path class="st0" d="M667.18,540.5h2.67v12.79h6.26v2.25h-8.92v-15.04Z"/>
    <path class="st0" d="M678.68,551.79c.54.51,1.15.92,1.84,1.23.69.31,1.38.47,2.07.47.86,0,1.51-.18,1.96-.53.44-.35.67-.82.67-1.4,0-.31-.06-.57-.17-.78-.12-.21-.28-.4-.48-.56s-.45-.31-.74-.45c-.28-.14-.59-.28-.93-.41l-2.07-.9c-.37-.15-.73-.34-1.09-.58-.36-.23-.69-.51-.98-.83-.29-.32-.53-.7-.7-1.13-.18-.43-.26-.92-.26-1.47,0-.6.13-1.15.38-1.67.25-.51.6-.96,1.05-1.34.44-.38.98-.68,1.6-.9s1.3-.32,2.04-.32c.87,0,1.72.17,2.53.52.81.35,1.51.81,2.09,1.39l-1.36,1.7c-.49-.4-1-.71-1.52-.94-.52-.23-1.1-.34-1.75-.34-.72,0-1.3.16-1.72.47-.43.31-.64.75-.64,1.3,0,.29.06.54.2.75.13.21.31.39.53.55.22.16.48.31.77.44.29.13.59.26.9.38l2.05.85c.44.18.85.4,1.22.64.37.25.69.53.96.85.27.32.48.69.63,1.12s.23.91.23,1.46c0,.61-.12,1.19-.37,1.72-.25.54-.6,1.01-1.07,1.41-.47.41-1.04.73-1.7.97-.67.24-1.42.36-2.27.36-1.01,0-1.99-.19-2.93-.58-.94-.38-1.77-.93-2.5-1.63l1.56-1.82Z"/>
    <path class="st0" d="M689.86,558.28c.74-.29,1.31-.68,1.71-1.17.41-.49.61-1.03.61-1.61h-.21c-.45,0-.84-.14-1.18-.43-.34-.28-.52-.69-.52-1.21,0-.49.17-.89.52-1.18s.76-.45,1.25-.45c.63,0,1.12.24,1.46.71.34.47.52,1.14.52,2,0,1.13-.31,2.12-.93,2.94s-1.51,1.44-2.66,1.84l-.58-1.45Z"/>
    <path class="st0" d="M708.72,551.47h-5.06l-1.17,4.07h-2.71l4.9-15.04h3.13l4.9,15.04h-2.81l-1.17-4.07ZM708.12,549.37l-.53-1.84c-.25-.8-.48-1.62-.7-2.46-.22-.84-.44-1.68-.66-2.51h-.09c-.21.84-.43,1.68-.64,2.52s-.44,1.65-.69,2.45l-.53,1.84h3.84Z"/>
    <path class="st0" d="M714.56,540.5h2.74l4.69,8.46,1.54,3.2h.09c-.06-.78-.13-1.62-.22-2.52-.08-.9-.13-1.77-.13-2.61v-6.53h2.55v15.04h-2.74l-4.69-8.46-1.54-3.2h-.09c.06.8.13,1.63.22,2.51.08.87.13,1.73.13,2.58v6.58h-2.55v-15.04Z"/>
    <path class="st0" d="M729.65,540.5h4.02c2.3,0,4.09.62,5.38,1.86,1.29,1.24,1.93,3.1,1.93,5.59,0,1.24-.17,2.34-.49,3.29-.33.95-.81,1.74-1.43,2.38-.62.64-1.37,1.12-2.25,1.44-.88.32-1.88.48-3,.48h-4.16v-15.04ZM733.49,553.38c1.53,0,2.71-.44,3.53-1.32s1.23-2.25,1.23-4.11-.41-3.18-1.24-4.03c-.83-.84-2-1.26-3.52-1.26h-1.17v10.72h1.17Z"/>
    <path class="st0" d="M749.27,551.79c.54.51,1.15.92,1.84,1.23.69.31,1.38.47,2.07.47.86,0,1.51-.18,1.96-.53.44-.35.67-.82.67-1.4,0-.31-.06-.57-.17-.78-.12-.21-.28-.4-.48-.56s-.45-.31-.74-.45c-.28-.14-.59-.28-.93-.41l-2.07-.9c-.37-.15-.73-.34-1.09-.58-.36-.23-.69-.51-.98-.83-.29-.32-.53-.7-.7-1.13-.18-.43-.26-.92-.26-1.47,0-.6.13-1.15.38-1.67.25-.51.6-.96,1.05-1.34.44-.38.98-.68,1.6-.9s1.3-.32,2.04-.32c.87,0,1.72.17,2.53.52.81.35,1.51.81,2.09,1.39l-1.36,1.7c-.49-.4-1-.71-1.52-.94-.52-.23-1.1-.34-1.75-.34-.72,0-1.3.16-1.72.47-.43.31-.64.75-.64,1.3,0,.29.06.54.2.75.13.21.31.39.53.55.22.16.48.31.77.44.29.13.59.26.9.38l2.05.85c.44.18.85.4,1.22.64.37.25.69.53.96.85.27.32.48.69.63,1.12s.23.91.23,1.46c0,.61-.12,1.19-.37,1.72-.25.54-.6,1.01-1.07,1.41-.47.41-1.04.73-1.7.97-.67.24-1.42.36-2.27.36-1.01,0-1.99-.19-2.93-.58-.94-.38-1.77-.93-2.5-1.63l1.56-1.82Z"/>
    <path class="st0" d="M763.85,542.75h-4.35v-2.25h11.36v2.25h-4.35v12.79h-2.67v-12.79Z"/>
    <path class="st0" d="M779.44,551.47h-5.06l-1.17,4.07h-2.71l4.9-15.04h3.13l4.9,15.04h-2.81l-1.17-4.07ZM778.85,549.37l-.53-1.84c-.25-.8-.48-1.62-.7-2.46-.22-.84-.44-1.68-.66-2.51h-.09c-.21.84-.43,1.68-.64,2.52s-.44,1.65-.69,2.45l-.53,1.84h3.84Z"/>
    <path class="st0" d="M785.29,540.5h2.74l4.69,8.46,1.54,3.2h.09c-.06-.78-.13-1.62-.22-2.52-.08-.9-.13-1.77-.13-2.61v-6.53h2.55v15.04h-2.74l-4.69-8.46-1.54-3.2h-.09c.06.8.13,1.63.22,2.51.08.87.13,1.73.13,2.58v6.58h-2.55v-15.04Z"/>
    <path class="st0" d="M800.37,540.5h4.02c2.3,0,4.09.62,5.38,1.86,1.29,1.24,1.93,3.1,1.93,5.59,0,1.24-.17,2.34-.49,3.29-.33.95-.81,1.74-1.43,2.38-.62.64-1.37,1.12-2.25,1.44-.88.32-1.88.48-3,.48h-4.16v-15.04ZM804.21,553.38c1.53,0,2.71-.44,3.53-1.32s1.23-2.25,1.23-4.11-.41-3.18-1.24-4.03c-.83-.84-2-1.26-3.52-1.26h-1.17v10.72h1.17Z"/>
    <path class="st0" d="M821.51,551.47h-5.06l-1.17,4.07h-2.71l4.9-15.04h3.13l4.9,15.04h-2.81l-1.17-4.07ZM820.91,549.37l-.53-1.84c-.25-.8-.48-1.62-.7-2.46-.22-.84-.44-1.68-.66-2.51h-.09c-.21.84-.43,1.68-.64,2.52s-.44,1.65-.69,2.45l-.53,1.84h3.84Z"/>
    <path class="st0" d="M835.56,555.54l-3.24-5.89h-2.3v5.89h-2.67v-15.04h5.08c.78,0,1.51.08,2.18.23s1.26.4,1.75.75c.49.34.88.8,1.16,1.37.28.57.42,1.27.42,2.12,0,1.15-.27,2.08-.82,2.78s-1.27,1.21-2.17,1.52l3.59,6.28h-2.99ZM830.02,547.53h2.14c1.03,0,1.81-.21,2.36-.64.54-.43.82-1.07.82-1.93s-.27-1.48-.82-1.82c-.54-.34-1.33-.51-2.36-.51h-2.14v4.9Z"/>
    <path class="st0" d="M841.13,540.5h4.02c2.3,0,4.09.62,5.38,1.86,1.29,1.24,1.93,3.1,1.93,5.59,0,1.24-.17,2.34-.49,3.29-.33.95-.81,1.74-1.43,2.38-.62.64-1.37,1.12-2.25,1.44-.88.32-1.88.48-3,.48h-4.16v-15.04ZM844.97,553.38c1.53,0,2.71-.44,3.53-1.32s1.23-2.25,1.23-4.11-.41-3.18-1.24-4.03c-.83-.84-2-1.26-3.52-1.26h-1.17v10.72h1.17Z"/>
    <path class="st0" d="M856.04,551.79c.54.51,1.15.92,1.84,1.23.69.31,1.38.47,2.07.47.86,0,1.51-.18,1.96-.53.44-.35.67-.82.67-1.4,0-.31-.06-.57-.17-.78-.12-.21-.28-.4-.48-.56s-.45-.31-.74-.45c-.28-.14-.59-.28-.93-.41l-2.07-.9c-.37-.15-.73-.34-1.09-.58-.36-.23-.69-.51-.98-.83-.29-.32-.53-.7-.7-1.13-.18-.43-.26-.92-.26-1.47,0-.6.13-1.15.38-1.67.25-.51.6-.96,1.05-1.34.44-.38.98-.68,1.6-.9s1.3-.32,2.04-.32c.87,0,1.72.17,2.53.52.81.35,1.51.81,2.09,1.39l-1.36,1.7c-.49-.4-1-.71-1.52-.94-.52-.23-1.1-.34-1.75-.34-.72,0-1.3.16-1.72.47-.43.31-.64.75-.64,1.3,0,.29.06.54.2.75.13.21.31.39.53.55.22.16.48.31.77.44.29.13.59.26.9.38l2.05.85c.44.18.85.4,1.22.64.37.25.69.53.96.85.27.32.48.69.63,1.12s.23.91.23,1.46c0,.61-.12,1.19-.37,1.72-.25.54-.6,1.01-1.07,1.41-.47.41-1.04.73-1.7.97-.67.24-1.42.36-2.27.36-1.01,0-1.99-.19-2.93-.58-.94-.38-1.77-.93-2.5-1.63l1.56-1.82Z"/>
    <path class="st0" d="M867.58,554.02c0-.52.16-.95.49-1.29.33-.34.74-.51,1.23-.51s.9.17,1.22.51c.32.34.48.77.48,1.29s-.16.95-.48,1.29c-.32.34-.73.51-1.22.51s-.9-.17-1.23-.51c-.33-.34-.49-.77-.49-1.29Z"/>
  </g>
  <g>
    <polygon class="st0" points="218.09 344.23 231.72 344.23 231.72 315.34 260.71 315.34 260.71 302.41 231.72 302.41 231.72 284.84 263.94 284.84 263.94 271.91 218.09 271.91 218.09 344.23"/>
    <path class="st0" d="M280.61,270c-2.36,0-4.38.82-6.06,2.47-1.68,1.65-2.53,3.65-2.53,6.01s.84,4.38,2.53,6.06c1.68,1.68,3.7,2.52,6.06,2.52s4.36-.84,6.01-2.52c1.65-1.68,2.48-3.7,2.48-6.06s-.83-4.36-2.48-6.01c-1.65-1.65-3.65-2.47-6.01-2.47Z"/>
    <rect class="st0" x="273.94" y="292.72" width="13.23" height="51.51"/>
    <path class="st0" d="M337.77,294.54c-3.84-2.29-8.42-3.43-13.74-3.43-4.98,0-9.49,1.25-13.53,3.74-4.04,2.49-7.2,5.84-9.49,10.05-2.29,4.21-3.43,8.77-3.43,13.68,0,5.19,1.16,9.85,3.49,13.99,2.32,4.14,5.54,7.39,9.65,9.75,4.11,2.36,8.72,3.54,13.84,3.54,10.7,0,18.68-4.58,23.94-13.74l-10.7-5.25c-1.28,2.22-3.01,3.99-5.2,5.3-2.19,1.31-4.8,1.97-7.83,1.97-3.64,0-6.75-1.06-9.34-3.18-2.59-2.12-4.23-5.23-4.9-9.34h38.68c.2-1.41.3-2.89.3-4.44,0-4.85-.99-9.26-2.98-13.23-1.99-3.97-4.9-7.1-8.73-9.39ZM311.11,312.21c1.01-3.16,2.64-5.67,4.9-7.52,2.25-1.85,4.96-2.78,8.13-2.78,2.49,0,4.66.52,6.51,1.57,1.85,1.04,3.3,2.36,4.34,3.94,1.04,1.58,1.63,3.18,1.77,4.8h-25.65Z"/>
    <rect class="st0" x="359.68" y="271.91" width="13.23" height="72.31"/>
    <path class="st0" d="M423.01,291.71l.81,7.27h-.81c-1.41-2.22-3.47-4.09-6.16-5.61-2.69-1.52-5.79-2.27-9.29-2.27-4.65,0-8.87,1.16-12.68,3.48-3.8,2.32-6.8,5.57-8.99,9.75-2.19,4.18-3.28,8.89-3.28,14.14s1.09,10.05,3.28,14.19c2.19,4.14,5.18,7.37,8.99,9.7,3.8,2.32,8.03,3.48,12.68,3.48,3.5,0,6.61-.74,9.34-2.22,2.73-1.48,4.76-3.33,6.11-5.56h.81v6.16h12.32v-72.31h-13.13v19.79ZM421.9,326.35c-1.28,2.29-3,4.07-5.15,5.35-2.16,1.28-4.48,1.92-6.97,1.92s-4.71-.64-6.87-1.92c-2.16-1.28-3.87-3.06-5.15-5.35-1.28-2.29-1.92-4.91-1.92-7.88s.64-5.59,1.92-7.88c1.28-2.29,2.99-4.06,5.15-5.3,2.15-1.25,4.44-1.87,6.87-1.87s4.81.62,6.97,1.87c2.15,1.25,3.87,3.01,5.15,5.3,1.28,2.29,1.92,4.92,1.92,7.88s-.64,5.59-1.92,7.88Z"/>
    <path class="st0" d="M525.97,275.3c-5.76-3.33-12.17-5-19.24-5s-13.48,1.67-19.24,5c-5.76,3.33-10.29,7.9-13.58,13.68-3.3,5.79-4.95,12.15-4.95,19.09s1.65,13.3,4.95,19.09c3.3,5.79,7.83,10.35,13.58,13.68,5.76,3.33,12.17,5,19.24,5s13.48-1.67,19.24-5c5.76-3.33,10.28-7.89,13.58-13.68,3.3-5.79,4.95-12.15,4.95-19.09s-1.65-13.3-4.95-19.09c-3.3-5.79-7.83-10.35-13.58-13.68ZM527.69,321c-2.12,3.77-5.03,6.7-8.73,8.79-3.7,2.09-7.78,3.13-12.22,3.13s-8.5-1.04-12.17-3.13c-3.67-2.09-6.56-5.01-8.69-8.79-2.12-3.77-3.18-8.08-3.18-12.93s1.06-9.16,3.18-12.93c2.12-3.77,5.02-6.7,8.69-8.79,3.67-2.09,7.73-3.13,12.17-3.13s8.52,1.05,12.22,3.13c3.7,2.09,6.61,5.02,8.73,8.79,2.12,3.77,3.18,8.08,3.18,12.93s-1.06,9.16-3.18,12.93Z"/>
    <path class="st0" d="M566.42,276.11c-3.5,3.33-5.25,7.93-5.25,13.79v2.83h-9.19v11.31h9.19v40.2h13.23v-40.2h12.62v-11.31h-12.62v-2.02c0-2.22.67-3.97,2.02-5.25,1.35-1.28,3.13-1.92,5.35-1.92,1.28,0,2.41.14,3.38.4.98.27,2.1.67,3.38,1.21v-12.93c-2.36-.74-5.15-1.11-8.38-1.11-5.66,0-10.24,1.67-13.74,5Z"/>
    <path class="st0" d="M640.05,271.91l-27.07,72.31h15.05l6.06-17.27h27.67l6.06,17.27h15.05l-27.17-72.31h-15.65ZM638.43,314.43l6.46-18.18,2.62-8.69h.81l2.63,8.69,6.36,18.18h-18.89Z"/>
    <path class="st0" d="M713.57,333.62c-4.04,0-7.36-1.38-9.95-4.14-2.59-2.76-3.89-6.43-3.89-11.01s1.3-8.15,3.89-10.91c2.59-2.76,5.91-4.14,9.95-4.14,5.52,0,9.36,2.29,11.51,6.87l12.12-5.05c-1.82-4.51-4.78-7.99-8.89-10.45-4.11-2.46-9.02-3.69-14.75-3.69-5.18,0-9.83,1.18-13.94,3.54-4.11,2.36-7.32,5.61-9.65,9.75-2.32,4.14-3.48,8.84-3.48,14.09s1.16,9.97,3.48,14.14c2.32,4.18,5.54,7.42,9.65,9.75,4.11,2.32,8.75,3.48,13.94,3.48,5.66,0,10.54-1.25,14.64-3.74,4.11-2.49,7.27-5.99,9.49-10.5l-12.02-5.25c-2.49,4.85-6.53,7.27-12.12,7.27Z"/>
    <path class="st0" d="M771.84,333.42c-2.29,0-3.91-.55-4.85-1.66-1.14-1.18-1.72-3.12-1.72-5.81v-21.91h12.62v-11.31h-12.62v-14.54h-13.23v14.54h-8.99v11.31h8.99v24.2c0,5.7,1.58,10.09,4.75,13.18,1.35,1.37,3.1,2.45,5.25,3.24,2.15.79,4.51,1.18,7.07,1.18,3.23,0,6.29-.57,9.19-1.72v-12.93c-1.35.81-2.44,1.38-3.28,1.72-.84.34-1.9.5-3.18.5Z"/>
    <rect class="st0" x="790.22" y="292.72" width="13.23" height="51.51"/>
    <path class="st0" d="M796.89,270c-2.36,0-4.38.82-6.06,2.47-1.68,1.65-2.53,3.65-2.53,6.01s.84,4.38,2.53,6.06c1.68,1.68,3.7,2.52,6.06,2.52s4.36-.84,6.01-2.52c1.65-1.68,2.48-3.7,2.48-6.06s-.83-4.36-2.48-6.01c-1.65-1.65-3.65-2.47-6.01-2.47Z"/>
    <path class="st0" d="M855.47,294.69c-4.18-2.39-8.89-3.59-14.14-3.59s-10.07,1.2-14.24,3.59c-4.18,2.39-7.42,5.67-9.75,9.85-2.32,4.18-3.49,8.82-3.49,13.94s1.16,9.85,3.49,13.99c2.32,4.14,5.57,7.41,9.75,9.8,4.17,2.39,8.92,3.59,14.24,3.59s9.96-1.2,14.14-3.59c4.17-2.39,7.42-5.66,9.75-9.8,2.32-4.14,3.49-8.8,3.49-13.99s-1.16-9.76-3.49-13.94c-2.32-4.17-5.57-7.46-9.75-9.85ZM853.55,326.55c-1.28,2.29-3,4.04-5.15,5.25-2.16,1.21-4.51,1.82-7.07,1.82s-4.91-.61-7.07-1.82c-2.16-1.21-3.89-2.98-5.2-5.3-1.31-2.32-1.97-5-1.97-8.03s.66-5.69,1.97-7.98c1.31-2.29,3.05-4.04,5.2-5.25,2.15-1.21,4.51-1.82,7.07-1.82s4.91.61,7.07,1.82c2.15,1.21,3.87,2.96,5.15,5.25,1.28,2.29,1.92,4.95,1.92,7.98s-.64,5.79-1.92,8.08Z"/>
    <path class="st0" d="M906.77,291.1c-3.3,0-6.36.72-9.19,2.17-2.83,1.45-5.02,3.42-6.56,5.91h-.81v-6.46h-12.42v51.51h13.23v-26.26c0-4.17,1.09-7.64,3.28-10.4,2.19-2.76,5.07-4.14,8.63-4.14,3.03,0,5.39.91,7.07,2.73,1.68,1.82,2.52,4.38,2.52,7.68v30.4h13.23v-32.02c0-6.53-1.62-11.68-4.85-15.45-3.23-3.77-7.95-5.66-14.14-5.66Z"/>
    <path class="st0" d="M962.72,290.8l6.06-8.48v-.2h-5.25s-5.56,8.48-5.56,8.48h-2.42s0-8.48,0-8.48h-4.65v22.82h9.7c1.95,0,3.67-.71,5.15-2.12,1.48-1.41,2.22-3.13,2.22-5.15,0-1.55-.49-2.95-1.47-4.19-.98-1.25-2.17-2.07-3.59-2.47l-.2-.2ZM962.42,295.65c.61.54.91,1.21.91,2.02,0,.74-.29,1.4-.86,1.97-.57.57-1.3.86-2.17.86h-4.75s0-5.66,0-5.66h4.64c.87,0,1.62.27,2.22.81Z"/>
    <path class="st0" d="M978.78,281.91c-2.09-3.57-4.92-6.4-8.49-8.48-3.57-2.09-7.44-3.13-11.61-3.13s-8.05,1.05-11.61,3.13c-3.57,2.09-6.4,4.92-8.48,8.48-2.09,3.57-3.13,7.44-3.13,11.61s1.04,8.05,3.13,11.61c2.09,3.57,4.91,6.4,8.48,8.48,3.57,2.09,7.44,3.13,11.61,3.13s8.04-1.04,11.61-3.13c3.57-2.09,6.4-4.91,8.49-8.48,2.09-3.57,3.13-7.44,3.13-11.61s-1.04-8.04-3.13-11.61ZM974.59,302.72c-1.65,2.83-3.87,5.07-6.66,6.72-2.8,1.65-5.88,2.47-9.24,2.47s-6.35-.84-9.14-2.53c-2.79-1.68-5.03-3.92-6.72-6.72-1.68-2.79-2.52-5.84-2.52-9.14s.82-6.45,2.47-9.24c1.65-2.79,3.89-5.02,6.72-6.67,2.83-1.65,5.89-2.47,9.19-2.47s6.45.83,9.24,2.47c2.79,1.65,5.01,3.87,6.66,6.67,1.65,2.79,2.47,5.87,2.47,9.24s-.82,6.36-2.47,9.19Z"/>
  </g>
</svg>